<?xml version="1.0" standalone="no"?>
<!DOCTYPE svg PUBLIC "-//W3C//DTD SVG 20010904//EN"
 "http://www.w3.org/TR/2001/REC-SVG-20010904/DTD/svg10.dtd">
<svg version="1.0" xmlns="http://www.w3.org/2000/svg"
 width="308.000000pt" height="335.000000pt" viewBox="0 0 308.000000 335.000000"
 preserveAspectRatio="xMidYMid meet">
<metadata>
Created by potrace 1.16, written by Peter Selinger 2001-2019
</metadata>
<g transform="translate(0.000000,335.000000) scale(0.100000,-0.100000)"
fill="#000000" stroke="none">
<path d="M425 3262 c-2 -2 -20 -5 -42 -7 -48 -4 -89 -20 -130 -51 -38 -29 -59
-65 -72 -125 -15 -69 -17 -2620 -1 -2686 6 -29 25 -70 41 -93 24 -33 26 -39
10 -31 -28 16 -69 -3 -82 -36 -9 -24 -7 -30 11 -45 36 -29 87 -38 290 -48 372
-20 469 -34 768 -115 l93 -25 782 1 c430 1 791 4 802 7 32 11 62 35 69 58 8
25 -36 74 -65 74 -17 0 -17 3 3 48 20 42 23 74 30 317 5 149 6 315 3 370 -7
115 -6 1231 1 1438 3 75 1 137 -3 137 -4 0 -7 138 -6 307 2 299 2 309 -20 352
-29 59 -88 121 -115 121 -12 0 -22 6 -22 13 0 9 -3 8 -9 -2 -6 -8 -18 -11 -37
-7 -16 3 -69 7 -118 8 -49 1 -84 4 -77 6 24 8 9 22 -25 22 -21 0 -33 -4 -29
-10 7 -11 24 -11 -310 -10 -152 0 -251 4 -253 10 -2 6 -8 10 -13 10 -6 0 -8
-4 -5 -9 3 -5 -3 -11 -13 -14 -14 -3 -18 -1 -14 9 3 9 -1 14 -12 14 -9 0 -13
-4 -10 -10 8 -13 22 -11 -135 -16 -269 -9 -336 -30 -382 -117 l-23 -42 -5
-955 c-5 -941 -5 -947 -10 -385 -7 764 -2 1299 10 1347 21 78 111 147 191 148
20 0 42 6 48 14 10 11 -76 13 -550 12 -308 0 -562 -2 -564 -4z m2421 -94 c12
-12 30 -39 40 -58 18 -34 19 -90 22 -1434 3 -1560 6 -1472 -65 -1541 -20 -19
-43 -35 -51 -35 -8 0 0 10 19 23 19 12 45 43 58 67 l25 44 -3 1416 c-3 1565 2
1449 -69 1524 -21 22 -28 34 -17 28 11 -6 30 -21 41 -34z m-2551 -16 c17 -12
35 -51 27 -56 -5 -3 -8 -37 -8 -76 1 -38 -2 -70 -5 -70 -3 0 -5 -22 -5 -50 1
-27 4 -50 8 -50 4 0 3 -12 0 -27 -7 -26 -7 -44 -2 -68 1 -5 1 -26 1 -45 -1
-19 -1 -42 -1 -50 5 -132 3 -288 -3 -297 -5 -6 -4 -20 2 -31 6 -11 7 -22 4
-26 -4 -3 -8 -118 -9 -254 -1 -136 -6 -422 -10 -637 -3 -214 -7 -534 -8 -710
-1 -316 -1 -321 22 -356 38 -62 21 -86 -41 -58 -22 10 -66 69 -51 69 3 0 0 7
-7 17 -12 13 -14 226 -15 1287 -1 699 1 1308 5 1353 7 75 10 85 39 113 33 31
41 34 57 22z m505 -118 c0 -24 1 -24 22 -10 17 12 48 16 120 16 53 0 99 -3
101 -7 3 -5 -39 -6 -92 -5 -132 5 -133 4 -130 -142 1 -61 5 -115 8 -121 11
-20 8 -32 -10 -43 -12 -8 -19 -8 -19 -2 0 5 -6 10 -13 10 -8 0 -22 9 -32 20
-16 17 -19 40 -20 138 -2 101 1 121 17 145 25 34 48 35 48 1z m850 -171 c9
-35 16 -63 16 -63 -1 0 -49 16 -106 35 -115 39 -133 42 -104 20 17 -13 17 -14
2 -15 -21 0 -23 -11 -5 -30 6 -7 -7 0 -30 16 -37 25 -43 34 -43 67 l0 38 126
-3 127 -3 17 -62z m699 56 c30 -10 43 -29 20 -29 -6 0 -8 -8 -4 -19 3 -12 0
-21 -10 -25 -20 -7 -19 -35 3 -43 9 -4 21 -13 25 -20 5 -7 12 -11 18 -8 5 4
12 0 15 -9 3 -8 12 -12 20 -9 8 3 14 -1 14 -8 0 -9 4 -7 11 4 6 10 11 49 11
87 0 53 3 70 16 75 20 8 35 -8 35 -38 0 -34 24 -24 30 11 3 20 4 17 4 -8 -1
-26 9 -49 38 -87 41 -55 31 -51 172 -68 l52 -7 3 -86 c2 -48 2 -88 1 -90 0 -2
-64 -21 -142 -42 -129 -35 -144 -41 -196 -85 -30 -26 -53 -51 -50 -54 4 -3 93
-8 198 -11 l192 -5 2 -340 3 -340 -91 95 c-50 52 -75 75 -55 51 28 -34 34 -50
30 -70 -7 -28 -29 -108 -44 -157 -18 -55 -14 -63 33 -67 23 -2 -41 -4 -143 -5
-157 -2 -200 -6 -285 -26 -61 -15 -105 -21 -115 -16 -8 5 -35 30 -60 56 -42
44 -43 45 -9 21 20 -15 39 -24 44 -19 5 4 4 0 0 -8 -8 -13 -6 -13 7 -2 12 9
49 13 133 11 112 -2 116 -1 133 22 9 13 42 60 74 105 l56 81 -119 99 c-66 55
-125 101 -130 103 -14 4 -302 -49 -312 -59 -5 -4 -2 -56 7 -114 9 -59 16 -114
16 -122 0 -9 -36 16 -91 63 -140 119 -167 141 -144 114 11 -13 71 -66 133
-120 64 -53 108 -97 100 -99 -22 -4 -548 86 -585 100 l-33 12 0 92 0 92 143 6
c96 5 189 2 287 -7 80 -8 147 -13 149 -11 1 1 -32 20 -74 41 l-77 39 -4 59
c-2 33 -7 68 -10 80 -4 16 0 14 21 -10 l27 -30 -23 40 c-37 65 -51 85 -59 85
-4 0 -12 -10 -18 -22 -11 -20 -12 -21 -9 -3 2 12 -5 25 -16 31 -23 13 51 11
242 -6 63 -6 115 -9 117 -7 2 2 -30 27 -71 55 -73 52 -101 78 -71 66 9 -3 16
-2 16 3 0 5 9 9 19 9 11 0 40 -27 72 -68 l54 -67 140 -57 c77 -30 145 -58 151
-60 6 -3 14 47 22 144 11 147 11 150 -14 238 -14 49 -31 92 -38 96 -7 4 -24
16 -37 27 l-24 19 27 29 26 28 -38 130 c-21 71 -44 131 -50 133 -9 3 -9 7 1
13 19 12 50 11 88 -2z m-936 -1539 c4 0 31 0 61 0 43 0 55 -4 58 -17 4 -13 71
-41 248 -102 l242 -85 97 -87 c82 -74 99 -95 118 -145 13 -32 19 -60 14 -63
-5 -4 -10 -46 -11 -96 -4 -156 -7 -185 -21 -203 -7 -9 20 15 60 53 41 39 71
62 67 52 -3 -10 -6 -33 -6 -52 0 -31 -5 -35 -89 -83 l-90 -49 -58 40 c-32 23
-108 76 -170 120 l-112 79 14 37 15 36 -20 -24 -21 -24 -24 23 c-14 13 -27 21
-30 18 -3 -3 8 -18 26 -32 17 -15 29 -29 26 -32 -3 -3 -88 17 -189 45 -101 27
-195 53 -210 57 l-28 6 1 297 c0 239 3 290 12 264 7 -18 15 -33 20 -33z"/>
<path d="M1587 1085 c4 -38 7 -86 8 -106 l0 -36 45 27 c25 15 100 57 168 94
67 37 122 69 122 71 0 2 -19 -4 -42 -14 -25 -11 -71 -19 -108 -20 -36 -1 -91
-5 -122 -10 l-57 -7 -10 35 c-8 29 -9 22 -4 -34z"/>
</g>
</svg>
